<?xml version="1.0" encoding="iso-8859-1"?>
<!-- Generator: Adobe Illustrator 19.0.0, SVG Export Plug-In . SVG Version: 6.00 Build 0)  -->
<svg version="1.1" id="Layer_1" xmlns="http://www.w3.org/2000/svg" xmlns:xlink="http://www.w3.org/1999/xlink" x="0px" y="0px"
	 viewBox="0 0 512.002 512.002" style="enable-background:new 0 0 512.002 512.002;" xml:space="preserve">
<g>
	<g>
		<path d="M509.015,31.078l-28.092-28.09c-3.983-3.983-10.441-3.983-14.425,0l-42.029,42.029l-3.962-3.962
			c-3.983-3.983-10.441-3.983-14.425,0L77.96,369.175c-20.562,20.562-36.244,44.762-46.61,71.929l-13.971,36.611
			c-0.389,1.019-0.591,2.073-0.644,3.126L2.987,494.59c-3.983,3.983-3.983,10.441,0,14.425c1.992,1.991,4.602,2.986,7.212,2.986
			s5.221-0.995,7.212-2.987l13.743-13.743c1.055-0.052,2.111-0.259,3.131-0.648l36.611-13.971
			c27.167-10.367,51.367-26.05,71.93-46.611l287.327-287.327c1.899,8.382-3.19,22.793-15.458,35.061l-86.471,86.471
			c-3.983,3.983-3.983,10.441,0,14.425c1.992,1.992,4.602,2.987,7.212,2.987c2.61,0,5.221-0.995,7.212-2.987l86.471-86.471
			c10.294-10.295,17.555-22.601,20.444-34.653c2.769-11.554,1.226-22.215-4.176-30.067l25.56-25.56
			c3.984-3.983,3.984-10.441,0-14.425l-3.962-3.962l42.029-42.029C512.997,41.52,512.997,35.061,509.015,31.078z M128.403,419.616
			c-18.518,18.518-40.312,32.641-64.779,41.977l-21.372,8.156l8.156-21.372c9.336-24.466,23.459-46.26,41.977-64.778l11.056-11.055
			l36.017,36.017L128.403,419.616z M153.881,394.137l-36.017-36.017l295.43-295.43l36.017,36.018L153.881,394.137z M452.56,73.108
			l-13.667-13.667l34.817-34.817l13.667,13.667L452.56,73.108z"/>
	</g>
</g>
<g>
</g>
<g>
</g>
<g>
</g>
<g>
</g>
<g>
</g>
<g>
</g>
<g>
</g>
<g>
</g>
<g>
</g>
<g>
</g>
<g>
</g>
<g>
</g>
<g>
</g>
<g>
</g>
<g>
</g>
</svg>
