<?xml version="1.0" encoding="utf-8"?>
<!-- Generator: Adobe Illustrator 16.0.0, SVG Export Plug-In . SVG Version: 6.00 Build 0)  -->
<!DOCTYPE svg PUBLIC "-//W3C//DTD SVG 1.1//EN" "http://www.w3.org/Graphics/SVG/1.1/DTD/svg11.dtd">
<svg version="1.1" id="Capa_1" xmlns="http://www.w3.org/2000/svg" xmlns:xlink="http://www.w3.org/1999/xlink" x="0px" y="0px"
	 width="500px" height="200px" viewBox="0 0 500 200" enable-background="new 0 0 500 200" xml:space="preserve">
<g>
	<path opacity="0.15" d="M229.372,67.639l6.121,9.875c1.469,2.368,0.74,5.429-1.633,6.896c-2.326,1.471-5.426,0.734-6.896-1.631
		l-6.121-9.877c-11.1-17.915-26.934-28.197-43.502-28.197h-22.358c-2.777,0-4.982-2.246-4.982-5.019
		c0-2.775,2.248-5.021,4.982-5.021h22.399C197.501,34.748,216.436,46.745,229.372,67.639z"/>
	<path opacity="0.15" d="M348.487,163.783l-24.237,24.282c-1.959,1.957-5.102,1.957-7.06,0c-1.959-1.961-1.959-5.104,0-7.063
		l15.751-15.749c-0.042,0-0.042,0-0.082,0h-23.137c-20.078,0-39.053-11.997-51.99-32.892l-3.754-6.082
		c-1.469-2.368-0.734-5.429,1.633-6.896c0.816-0.49,1.708-0.735,2.611-0.735c1.674,0,3.306,0.856,4.244,2.367l3.754,6.078
		c11.1,17.916,26.934,28.159,43.502,28.159h23.098c0.039,0,0.039,0,0.079,0l-15.75-15.751c-1.958-1.961-1.958-5.102,0-7.063
		c0.979-0.977,2.243-1.466,3.55-1.466c1.305,0,2.572,0.489,3.551,1.466l24.279,24.283
		C350.447,158.682,350.447,161.865,348.487,163.783z M337.84,160.192c0,0.039,0,0.039,0,0.082c0,0.041,0,0.041,0,0.08l0.081-0.08
		L337.84,160.192z"/>
	<path d="M317.149,11.937c0.979-0.98,2.243-1.47,3.55-1.47c1.305,0,2.572,0.489,3.551,1.47l24.279,24.279
		c1.961,1.96,1.961,5.103,0,7.062L324.25,67.516c-1.959,1.959-5.101,1.959-7.06,0c-1.959-1.957-1.959-5.1,0-7.058l15.751-15.753
		c-0.042,0-0.042,0-0.082,0h-22.407c-16.522,0-32.396,10.282-43.497,28.197l-36.808,59.46
		c-12.937,20.934-31.912,32.892-51.99,32.892h-23.175c-2.777,0-4.982-2.247-4.982-5.022c0-2.774,2.248-5.019,4.982-5.019h23.134
		c16.529,0,32.402-10.284,43.502-28.157L258.427,67.6c12.937-20.938,31.912-32.935,51.987-32.935h22.406c0.039,0,0.039,0,0.079,0
		l-15.75-15.751C315.231,17.037,315.231,13.894,317.149,11.937z M337.84,39.81l0.081-0.083l-0.081-0.083c0,0.043,0,0.043,0,0.083
		S337.84,39.767,337.84,39.81z"/>
</g>
</svg>
