<?xml version="1.0" encoding="iso-8859-1"?>
<!-- Generator: Adobe Illustrator 19.1.0, SVG Export Plug-In . SVG Version: 6.00 Build 0)  -->
<svg version="1.1" id="Capa_1" xmlns="http://www.w3.org/2000/svg" xmlns:xlink="http://www.w3.org/1999/xlink" x="0px" y="0px"
	 viewBox="0 0 351.397 351.397" style="enable-background:new 0 0 351.397 351.397;" xml:space="preserve">
<g>
	<g id="Mic_2_">
		<g>
			<path d="M255.061,124.645v34.013c0,45.396-35.215,79.363-79.363,79.363s-79.363-33.967-79.363-79.363v-34.013H73.66v45.35
				c1.474,49.976,43.015,85.735,90.701,90.701v68.025h-56.688v22.675h136.051v-22.675h-56.688v-68.025
				c49.16-3.492,89.204-39.659,90.701-90.701v-45.35C277.736,124.645,255.061,124.645,255.061,124.645z M119.033,154.078
				c0,27.528,25.373,49.863,56.643,49.863s56.643-22.312,56.643-49.863V49.863C232.318,22.335,206.967,0,175.698,0
				c-31.292,0-56.643,22.335-56.643,49.863c0,0.975,0.045,13.265,0.113,14.217v87.095
				C119.078,152.15,119.033,153.125,119.033,154.078z M141.686,67.957c0-24.444,8.798-45.35,34.013-45.35
				c25.237,0,34.013,20.906,34.013,45.35v79.363c0,24.444-8.775,34.013-34.013,34.013c-25.215,0-34.013-9.569-34.013-34.013V67.957z
				"/>
		</g>
	</g>
</g>
<g>
</g>
<g>
</g>
<g>
</g>
<g>
</g>
<g>
</g>
<g>
</g>
<g>
</g>
<g>
</g>
<g>
</g>
<g>
</g>
<g>
</g>
<g>
</g>
<g>
</g>
<g>
</g>
<g>
</g>
</svg>
