<?xml version="1.0" encoding="utf-8"?>
<!-- Generator: Adobe Illustrator 16.0.0, SVG Export Plug-In . SVG Version: 6.00 Build 0)  -->
<!DOCTYPE svg PUBLIC "-//W3C//DTD SVG 1.1//EN" "http://www.w3.org/Graphics/SVG/1.1/DTD/svg11.dtd">
<svg version="1.1" id="Layer_1" xmlns="http://www.w3.org/2000/svg" xmlns:xlink="http://www.w3.org/1999/xlink" x="0px" y="0px"
	 width="512px" height="512px" viewBox="0 0 512 512" enable-background="new 0 0 512 512" xml:space="preserve">
<path fill-rule="evenodd" clip-rule="evenodd" fill="#BFBFBF" d="M182.6,151.728c-21.061,0-38.152,17.063-38.152,38.124
	s17.092,38.137,38.152,38.137s38.125-17.077,38.125-38.137S203.66,151.728,182.6,151.728L182.6,151.728z M256.014,67.445
	c104.111,0,188.523,84.424,188.523,188.548c0,13.01-1.303,25.736-3.826,38.009l-5.584,18l-68.313-117.8l-98.811,170.321
	l-41.668-71.881l-69.445,119.727l-34.213-23.044c-34.128-34.127-55.217-81.263-55.217-133.332
	C67.461,151.869,151.873,67.445,256.014,67.445L256.014,67.445z M256.014,30.116c-124.775,0-225.911,101.133-225.911,225.877
	c0,124.743,101.136,225.876,225.911,225.876c124.748,0,225.883-101.133,225.883-225.876
	C481.896,131.249,380.762,30.116,256.014,30.116L256.014,30.116z M256.014,0C397.4,0,512,114.61,512,255.993
	C512,397.375,397.4,512,256.014,512C114.6,512,0,397.375,0,255.993C0,114.61,114.6,0,256.014,0L256.014,0z"/>
</svg>
