<?xml version="1.0" encoding="utf-8"?>
<!-- Generator: Adobe Illustrator 16.0.0, SVG Export Plug-In . SVG Version: 6.00 Build 0)  -->
<!DOCTYPE svg PUBLIC "-//W3C//DTD SVG 1.1//EN" "http://www.w3.org/Graphics/SVG/1.1/DTD/svg11.dtd">
<svg version="1.1" id="Layer_1" xmlns="http://www.w3.org/2000/svg" xmlns:xlink="http://www.w3.org/1999/xlink" x="0px" y="0px"
	 width="512px" height="512px" viewBox="0 0 512 512" enable-background="new 0 0 512 512" xml:space="preserve">
<path fill-rule="evenodd" clip-rule="evenodd" fill="#BFBFBF" d="M259.912,242.912c3.372,0,6.319,0.652,8.843,1.927
	c2.494,1.29,4.592,2.934,6.234,4.918c1.502,1.984,2.664,4.266,3.486,6.831c0.822,2.58,1.219,5.074,1.219,7.541h-43.818
	c0.822-6.775,3.373-12.005,7.653-15.69C247.781,244.754,253.223,242.912,259.912,242.912L259.912,242.912z M354.749,227.847
	c-7.229,0-13.605,1.105-19.16,3.33c-5.557,2.211-10.262,5.314-14.115,9.283c-3.742,3.982-6.633,8.616-8.617,13.945
	c-1.984,5.302-2.947,11.11-2.947,17.433c0,8.418,1.615,15.986,4.875,22.703c3.289,6.717,7.426,11.934,12.471,15.674
	c3.516,2.693,7.881,4.875,13.152,6.576c5.244,1.701,10.742,2.721,16.469,3.061c5.725,0.482,11.422,0.201,17.09-0.85
	c5.668-1.078,10.602-2.947,14.797-5.611v-14.201c-2.098,1.275-4.309,2.324-6.633,3.146c-2.354,0.822-4.592,1.416-6.689,1.758
	c-2.098,0.453-3.939,0.795-5.5,0.963c-1.586,0.17-2.664,0.256-3.258,0.256c-7.824,0-14.201-1.021-19.104-3.063
	c-4.904-2.039-8.76-4.705-11.564-7.965c-2.807-3.4-4.705-7.227-5.697-11.48c-0.992-4.277-1.475-8.701-1.475-13.234
	c0-3.629,0.596-7.059,1.814-10.262c1.246-3.203,3.004-6.051,5.357-8.503c2.211-2.452,4.875-4.379,7.965-5.782
	c3.117-1.403,6.52-2.111,10.26-2.111c3.514,0,6.463,0.552,8.844,1.672c2.408,1.105,4.307,2.537,5.725,4.294
	c1.389,1.63,2.381,3.5,2.947,5.612c0.596,2.098,0.908,4.138,0.908,6.123h18.904c0-10.856-3.486-19.048-10.516-24.533
	C374.052,230.596,365.292,227.847,354.749,227.847L354.749,227.847z M260.421,227.847c-14.369,0-25.225,4.081-32.594,12.259
	c-7.37,8.191-11.054,18.75-11.054,31.732c0,8.418,1.644,15.986,4.932,22.703c3.26,6.717,7.397,11.934,12.415,15.674
	c3.515,2.693,7.823,4.875,12.981,6.576c5.16,1.701,10.515,2.721,16.127,3.061c5.725,0.369,11.422,0.029,17.092-0.963
	c5.668-0.992,10.77-2.834,15.332-5.498v-14.201c-2.096,1.275-4.334,2.324-6.66,3.146c-2.322,0.822-4.563,1.416-6.66,1.758
	c-2.098,0.453-3.939,0.795-5.527,0.963c-1.586,0.17-2.664,0.256-3.23,0.256c-6.32,0-11.678-0.709-16.128-2.098
	c-4.449-1.391-8.134-3.262-11.025-5.613c-2.948-2.438-5.187-5.244-6.774-8.418c-1.559-3.146-2.636-6.547-3.231-10.146h61.704
	v-11.395h0.34c-0.34-12.16-3.996-21.84-10.939-29.024C280.544,231.433,271.532,227.847,260.421,227.847L260.421,227.847z
	 M120.404,191.906v126.219h18.934V208.743h14.568c3.401,0,6.774,0.312,10.147,0.964c3.401,0.637,6.434,1.715,9.127,3.231
	c2.806,1.403,5.045,3.401,6.746,5.967c1.701,2.565,2.551,5.782,2.551,9.637c0,4.322-0.765,7.837-2.268,10.516
	c-1.53,2.693-3.571,4.734-6.15,6.137c-2.466,1.516-5.3,2.551-8.503,3.075c-3.203,0.524-6.52,0.779-9.892,0.779h-10.005v16.836
	h10.175c1.049,0,2.098,0,3.146,0c1.049,0,2.126-0.057,3.146-0.17c4.563,1.729,8.39,5.074,11.508,9.977
	c3.061,4.904,5.441,11.055,7.085,18.395l5.074,24.209h19.812l-5.782-30.67c-1.19-6.207-3.288-11.621-6.292-16.213
	c-3.062-4.621-6.208-8.391-9.467-11.309c5.357-2.693,9.808-6.548,13.322-11.579c3.486-5.017,5.244-11.678,5.244-19.983
	c0-7.355-1.445-13.408-4.28-18.141c-2.891-4.733-6.632-8.447-11.337-11.125c-4.535-2.692-9.694-4.591-15.504-5.697
	c-5.783-1.105-11.593-1.672-17.431-1.672H120.404z M256,67.489c104.106,0,188.485,84.395,188.485,188.504
	S360.106,444.512,256,444.512c-104.107,0-188.5-84.41-188.5-188.519S151.894,67.489,256,67.489L256,67.489z M256,30.116
	c-124.769,0-225.872,101.133-225.872,225.876S131.231,481.869,256,481.869c124.741,0,225.87-101.133,225.87-225.876
	S380.741,30.116,256,30.116L256,30.116z M256,0c141.377,0,255.999,114.611,255.999,255.993C511.999,397.375,397.378,512,256,512
	C114.622,512,0,397.375,0,255.993C0,114.611,114.622,0,256,0L256,0z"/>
</svg>
