<?xml version="1.0" encoding="utf-8"?>
<!DOCTYPE svg PUBLIC "-//W3C//DTD SVG 1.1//EN" "http://www.w3.org/Graphics/SVG/1.1/DTD/svg11.dtd">
<svg xmlns="http://www.w3.org/2000/svg" xmlns:xlink="http://www.w3.org/1999/xlink" version="1.1" viewBox="0 0 512 512" enable-background="new 0 0 512 512" width="512px" height="512px">
  <g>
    <g>
      <g>
        <g>
          <path d="m363.2,166.7h-214.4c-11.3,0-20.4-9.1-20.4-20.4 0-11.3 9.1-20.4 20.4-20.4h214.4c11.3,0 20.4,9.1 20.4,20.4 0,11.3-9.1,20.4-20.4,20.4z" fill="#FFFFFF"/>
        </g>
        <g>
          <path d="m363.2,273.2h-214.4c-11.3,0-20.4-9.1-20.4-20.4 0-11.3 9.1-20.4 20.4-20.4h214.4c11.3,0 20.4,9.1 20.4,20.4 0,11.3-9.1,20.4-20.4,20.4z" fill="#FFFFFF"/>
        </g>
      </g>
      <g>
        <path d="M91.6,498.4c-7.3-4.1-11.4-12.2-10.3-20.5l12.1-89.8H60.9c-27.5,0-49.9-22.4-49.9-49.8V60.9C11,33.4,33.4,11,60.9,11     h390.3c27.5,0,49.8,22.4,49.8,49.9v277.4c0,27.5-22.4,49.8-49.8,49.8H247.4L114.5,496.4C104.8,504,94.7,500.1,91.6,498.4z      M60.9,51.8c-5,0-9,4-9,9v277.4c0,5,4,9,9,9h56c16.5,0.6,21.9,15.8,20.2,23.1l-8.3,61.7l98.5-80.3c3.6-3,8.2-4.6,12.9-4.6h211     c5,0,9-4,9-9V60.9c0-5-4-9-9-9H60.9z" fill="#FFFFFF"/>
      </g>
    </g>
  </g>
</svg>
