<?xml version="1.0" encoding="utf-8"?>
<!-- Generator: Adobe Illustrator 16.0.0, SVG Export Plug-In . SVG Version: 6.00 Build 0)  -->
<!DOCTYPE svg PUBLIC "-//W3C//DTD SVG 1.1//EN" "http://www.w3.org/Graphics/SVG/1.1/DTD/svg11.dtd">
<svg version="1.1" id="Layer_1" xmlns="http://www.w3.org/2000/svg" xmlns:xlink="http://www.w3.org/1999/xlink" x="0px" y="0px"
	 width="2500px" height="2500px" viewBox="0 0 2500 2500" enable-background="new 0 0 2500 2500" xml:space="preserve">
<path fill-rule="evenodd" clip-rule="evenodd" fill="#FFFFFF" d="M1250.352,296.883L428.707,707.696v1084.547l821.645,410.81
	l821.645-410.81V707.696L1250.352,296.883L1250.352,296.883z M1250.352,80.308l1008.35,504.165v1330.995l-1008.35,504.165
	L242,1915.467V584.472L1250.352,80.308L1250.352,80.308z"/>
<path fill-rule="evenodd" clip-rule="evenodd" fill="#FFFFFF" d="M921.045,870.54v100.011l0.002-0.003v548.715l219.536,109.742
	l-219.536,109.743l-219.535-109.743v-100.011v-448.701V980.282l0,0l0,0L921.045,870.54L921.045,870.54z M921.047,870.538v0.002
	l-0.002-0.002C921.047,870.538,921.047,870.538,921.047,870.538L921.047,870.538z M1140.583,860.807c0,0,0.001,0,0.001,0.002h-0.001
	V860.807L1140.583,860.807z M1579.657,760.797l219.532,109.741l0,0l0,0V970.55v448.701v100.015l-219.535,109.742l-219.536-109.742
	l219.536-109.743V860.807l0.003,0.002V760.797L1579.657,760.797z M1140.587,760.797l219.531,109.741l0,0l0,0V970.55l0,0v448.701
	v100.012l-219.531-109.74v-100.009V860.809V760.797L1140.587,760.797z M1579.654,760.796c0.001,0,0.001,0.001,0.003,0.001h-0.003
	V760.796L1579.654,760.796z M1140.583,760.796l0.001,0.001h-0.001V760.796L1140.583,760.796z"/>
</svg>
