<?xml version="1.0" encoding="utf-8"?>
<!-- Generator: Adobe Illustrator 16.0.0, SVG Export Plug-In . SVG Version: 6.00 Build 0)  -->
<!DOCTYPE svg PUBLIC "-//W3C//DTD SVG 1.1//EN" "http://www.w3.org/Graphics/SVG/1.1/DTD/svg11.dtd">
<svg version="1.1" id="Layer_1" xmlns="http://www.w3.org/2000/svg" xmlns:xlink="http://www.w3.org/1999/xlink" x="0px" y="0px"
	 width="8500px" height="2500px" viewBox="0 0 8500 2500" enable-background="new 0 0 8500 2500" xml:space="preserve">
<g>
	<path fill-rule="evenodd" clip-rule="evenodd" fill="#FFFFFF" d="M1281.352,296.883L459.707,707.696v1084.547l821.645,410.81
		l821.644-410.81V707.696L1281.352,296.883L1281.352,296.883z M1281.352,80.308l1008.35,504.165v1330.995l-1008.35,504.165
		L273,1915.467V584.472L1281.352,80.308L1281.352,80.308z"/>
	<path fill-rule="evenodd" clip-rule="evenodd" fill="#FFFFFF" d="M952.045,870.54v100.011l0.002-0.003v548.715l219.536,109.742
		l-219.536,109.743l-219.535-109.743v-100.011v-448.701V980.282l0,0l0,0L952.045,870.54L952.045,870.54z M952.047,870.538v0.002
		l-0.002-0.002C952.047,870.538,952.047,870.538,952.047,870.538L952.047,870.538z M1171.583,860.807c0,0,0.001,0,0.001,0.002
		h-0.001V860.807L1171.583,860.807z M1610.657,760.797l219.533,109.741l0,0l0,0V970.55v448.701v100.015l-219.536,109.742
		l-219.536-109.742l219.536-109.743V860.807l0.003,0.002V760.797L1610.657,760.797z M1171.587,760.797l219.531,109.741l0,0l0,0
		V970.55l0,0v448.701v100.012l-219.531-109.74v-100.009V860.809V760.797L1171.587,760.797z M1610.654,760.796
		c0.001,0,0.001,0.001,0.003,0.001h-0.003V760.796L1610.654,760.796z M1171.583,760.796l0.001,0.001h-0.001V760.796
		L1171.583,760.796z"/>
	<path fill-rule="evenodd" clip-rule="evenodd" fill="#FFFFFF" d="M7757.551,1019.221c-84.706,1.087-156.995,30.508-216.879,88.257
		c-59.882,57.752-98.575,137.318-116.086,238.697v10.027h619.8v-8.023c-0.924-108.483-26.66-190.388-77.224-245.715
		C7916.595,1047.136,7846.729,1019.39,7757.551,1019.221L7757.551,1019.221z M4440.52,914.919h174.509v1095.188H4440.52V914.919
		L4440.52,914.919z M2749.213,914.919h178.518l204.592,882.57l286.834-882.57h158.46l286.831,882.57l200.582-882.57h170.496
		l-286.834,1095.188h-162.472l-294.854-892.599l-290.845,892.599h-160.464L2749.213,914.919L2749.213,914.919z M7761.561,888.843
		c148.393,0.543,262.809,44.587,343.248,132.133c80.444,87.549,121.143,215.336,122.104,383.37v82.235h-804.334v18.055
		c4.137,128.538,38.992,225.49,104.555,290.847c65.563,65.355,155.071,98.12,268.527,98.287
		c58.925,0.542,117.592-8.065,176.014-25.826c58.42-17.763,118.092-47.933,179.015-90.515c14.378-12.368,21.737-9.696,22.069,8.025
		v138.401c-55.829,42.335-116.672,71.502-182.531,87.506c-65.857,16.006-138.738,23.611-218.635,22.82
		c-160.008-1.09-288.295-50.569-384.865-148.436c-96.572-97.87-146.133-237.608-148.686-419.22
		c2.387-175.89,50.775-315.546,145.174-418.971C7477.615,944.129,7603.732,891.225,7761.561,888.843L7761.561,888.843z
		 M5452.598,888.843c137.771,0.543,235.81,41.078,294.102,121.603c58.293,80.527,86.627,197.786,84.998,351.777v647.884h-172.498
		v-651.897c1.461-112.159-14.502-195.736-47.891-250.73c-33.388-54.993-92.977-82.406-178.772-82.238
		c-57.859,0.692-112.411,17.583-163.658,50.664c-51.248,33.086-93.021,78.203-125.325,135.359
		c-32.305,57.153-48.973,122.184-49.996,195.087v603.756h-170.496V914.919h172.502l8.025,158.461h2.003
		c34.264-56.832,83.575-101.629,147.929-134.392C5317.875,906.226,5384.234,889.512,5452.598,888.843L5452.598,888.843z
		 M6155.69,644.129h172.505v270.79h284.822v130.378h-284.822v683.994c-2.006,58.291,5.514,99.164,22.563,122.606
		s55.661,34.725,115.835,33.849c20.145,0.126,45.55-3.133,76.223-9.777c30.676-6.646,60.092-17.426,88.255-32.342
		c14.378-10.033,21.733-6.023,22.063,12.031v122.356c-27.871,19.806-60.379,33.847-97.53,42.124
		c-37.149,8.271-74.176,12.285-111.075,12.034c-102.416,2.009-176.383-18.555-221.891-61.681
		c-45.511-43.126-67.822-114.834-66.948-215.126v-710.069h-190.55V914.919h190.55V644.129L6155.69,644.129z M4528.777,439.533
		c35.895,0.752,65.402,12.788,88.506,36.106c23.109,23.317,35.063,53.405,35.853,90.262c-0.79,35.813-12.743,64.98-35.853,87.505
		c-23.104,22.524-52.611,34.141-88.506,34.851c-36.773-0.71-66.529-12.327-89.261-34.851
		c-22.733-22.524-34.431-51.692-35.103-87.505c0.672-36.857,12.369-66.945,35.103-90.262
		C4462.248,452.321,4492.004,440.286,4528.777,439.533L4528.777,439.533z M6825.705,379.358h172.503v1630.749h-172.503V379.358
		L6825.705,379.358z"/>
</g>
</svg>
