<?xml version="1.0" encoding="utf-8"?>
<!-- Generator: Adobe Illustrator 16.0.0, SVG Export Plug-In . SVG Version: 6.00 Build 0)  -->
<!DOCTYPE svg PUBLIC "-//W3C//DTD SVG 1.1//EN" "http://www.w3.org/Graphics/SVG/1.1/DTD/svg11.dtd">
<svg version="1.1" id="Capa_1" xmlns="http://www.w3.org/2000/svg" xmlns:xlink="http://www.w3.org/1999/xlink" x="0px" y="0px"
	 width="468.398px" height="468.396px" viewBox="0 0 468.398 468.396" enable-background="new 0 0 468.398 468.396"
	 xml:space="preserve">
<g>
	<g>
		<path fill-rule="evenodd" clip-rule="evenodd" fill="#010101" d="M25.1,25.097c230.965,0,418.199,187.235,418.199,418.2h-8.236
			c0-226.413-183.545-409.959-409.96-409.959H25.1V25.097L25.1,25.097z"/>
		<path fill="none" stroke="#010101" stroke-width="14.04" stroke-linejoin="round" stroke-miterlimit="10" d="M25.1,25.097
			c230.965,0,418.199,187.235,418.199,418.2h-8.236c0-226.413-183.545-409.959-409.96-409.959H25.1V25.097L25.1,25.097z"/>
		<path fill-rule="evenodd" clip-rule="evenodd" fill="#010101" d="M25.1,150.498c161.709,0,292.8,131.091,292.8,292.8h-5.768
			c0-158.523-128.509-287.032-287.032-287.032V150.498z"/>
		<path fill="none" stroke="#010101" stroke-width="14.04" stroke-linejoin="round" stroke-miterlimit="10" d="M25.1,150.498
			c161.709,0,292.8,131.091,292.8,292.8h-5.768c0-158.523-128.509-287.032-287.032-287.032V150.498z"/>
		<path fill-rule="evenodd" clip-rule="evenodd" fill="#010101" d="M25.1,276.018c92.387,0,167.279,74.893,167.279,167.279H25.1
			V276.018L25.1,276.018z"/>
		<path fill="none" stroke="#010101" stroke-width="14.04" stroke-linejoin="round" stroke-miterlimit="10" d="M25.1,276.018
			c92.387,0,167.279,74.893,167.279,167.279H25.1V276.018L25.1,276.018z"/>
	</g>
</g>
</svg>
