<?xml version="1.0" encoding="utf-8"?>
<!-- Generator: Adobe Illustrator 16.0.0, SVG Export Plug-In . SVG Version: 6.00 Build 0)  -->
<!DOCTYPE svg PUBLIC "-//W3C//DTD SVG 1.1//EN" "http://www.w3.org/Graphics/SVG/1.1/DTD/svg11.dtd">
<svg version="1.1" id="Layer_1" xmlns="http://www.w3.org/2000/svg" xmlns:xlink="http://www.w3.org/1999/xlink" x="0px" y="0px"
	 width="500px" height="200px" viewBox="0 0 500 200" enable-background="new 0 0 500 200" xml:space="preserve">
<g>
	<g>
		<path fill-rule="evenodd" clip-rule="evenodd" fill="#FFFFFF" d="M15.366,156.256c14.158,4.881,29.359,7.465,45.164,7.465
			c15.805,0,31.006-2.584,45.164-7.465c-0.07,0.406-0.278,0.736-0.498,1.063c-2.06,3.049-4.894,5.266-8.067,6.555
			c-1.248,3.141-3.452,5.932-6.471,7.967c-3.18,2.143-6.798,3.131-10.355,3.023c-2.454,2.594-5.719,4.455-9.492,5.188
			c-3.616,0.703-7.188,0.268-10.345-1.063c-3.107,1.34-6.641,1.758-10.216,1.063c-3.765-0.73-7.024-2.586-9.463-5.176
			c-3.571,0.102-7.198-0.889-10.384-3.035c-3.054-2.057-5.272-4.889-6.563-8.059c-3.146-1.246-5.939-3.447-7.976-6.463
			L15.366,156.256z M107.914,149.477c0.072,1.15-0.173,2.271-0.611,3.346c-14.603,5.264-30.355,8.107-46.772,8.107
			c-16.418,0-32.171-2.844-46.774-8.107c-0.436-1.074-0.679-2.193-0.604-3.344c14.813,5.252,30.762,8.107,47.378,8.107
			C77.149,157.586,93.1,154.73,107.914,149.477L107.914,149.477z M111.855,141.803c-0.679,1.691-1.709,3.172-3.021,4.371
			c-15.042,5.578-31.317,8.621-48.304,8.621c-16.992,0-33.272-3.045-48.318-8.627c-1.307-1.199-2.332-2.678-3.006-4.365
			c15.893,6.256,33.212,9.648,51.324,9.648C78.643,151.451,95.961,148.059,111.855,141.803L111.855,141.803z M65.527,74.166
			c1.719-0.186,3.496-0.116,5.284,0.231c3.765,0.731,7.024,2.587,9.463,5.176c3.57-0.101,7.198,0.889,10.384,3.036
			c3.033,2.043,5.243,4.851,6.531,7.999c3.151,1.286,5.961,3.493,8.008,6.523c2.145,3.176,3.135,6.791,3.027,10.344
			c2.596,2.451,4.461,5.713,5.194,9.48c0.703,3.611,0.268,7.18-1.064,10.334c1.341,3.102,1.759,6.633,1.064,10.203l-0.318,0.877
			c-16.21,6.639-33.962,10.291-52.569,10.291s-36.359-3.652-52.569-10.291c-0.192-0.27-0.259-0.57-0.318-0.877
			c-0.703-3.611-0.268-7.18,1.064-10.332c-1.342-3.104-1.759-6.633-1.064-10.205c0.732-3.76,2.59-7.016,5.183-9.451
			c-0.101-3.566,0.889-7.19,3.039-10.373c2.06-3.05,4.894-5.266,8.067-6.555c1.249-3.143,3.452-5.933,6.472-7.967
			c3.181-2.143,6.802-3.133,10.367-3.037c2.453-2.586,5.714-4.443,9.48-5.175c3.615-0.702,7.188-0.267,10.344,1.063
			C62.148,74.79,63.808,74.351,65.527,74.166L65.527,74.166z"/>
		<path fill-rule="evenodd" clip-rule="evenodd" fill="#FFFFFF" d="M142.679,20.185c0.215,0.755,0.231,1.521,0.231,2.292
			c0,25.727-18.011,47.247-42.129,52.548c-0.215-0.755-0.231-1.521-0.231-2.292C100.55,47.005,118.562,25.486,142.679,20.185
			L142.679,20.185z"/>
		<path fill-rule="evenodd" clip-rule="evenodd" fill="#FFFFFF" d="M463.004,115.172c-5.447,0.07-10.097,1.961-13.948,5.672
			c-3.851,3.711-6.34,8.822-7.466,15.334v0.645h39.861v-0.516c-0.059-6.969-1.715-12.23-4.967-15.785
			S468.739,115.184,463.004,115.172L463.004,115.172z M252.131,108.473h11.223v70.361h-11.223V108.473L252.131,108.473z
			 M142.91,108.473h11.481l13.158,56.701l18.447-56.701h10.191l18.447,56.701l12.9-56.701H238.5l-18.447,70.361h-10.449
			l-18.963-57.346l-18.705,57.346h-10.32L142.91,108.473L142.91,108.473z M463.262,106.797c9.544,0.035,16.902,2.865,22.075,8.488
			c5.174,5.625,7.792,13.836,7.854,24.631v5.283h-51.729v1.16c0.266,8.258,2.508,14.486,6.724,18.686
			c4.218,4.199,9.974,6.305,17.271,6.314c3.789,0.035,7.563-0.518,11.32-1.658c3.757-1.141,7.595-3.08,11.513-5.816
			c0.925-0.795,1.397-0.623,1.419,0.516v8.893c-3.591,2.719-7.503,4.594-11.739,5.621c-4.235,1.029-8.922,1.518-14.061,1.467
			c-10.291-0.07-18.542-3.25-24.752-9.537c-6.211-6.287-9.398-15.266-9.563-26.934c0.153-11.299,3.266-20.271,9.336-26.918
			C445.001,110.348,453.111,106.949,463.262,106.797L463.262,106.797z M318.051,106.797c8.859,0.035,15.165,2.639,18.914,7.813
			s5.571,12.707,5.467,22.6v41.625h-11.095v-41.883c0.095-7.205-0.932-12.574-3.08-16.107c-2.146-3.533-5.979-5.295-11.496-5.285
			c-3.722,0.045-7.23,1.131-10.526,3.256s-5.982,5.025-8.06,8.697c-2.078,3.672-3.149,7.85-3.216,12.533v38.789h-10.965v-70.361
			h11.094l0.516,10.18h0.13c2.203-3.65,5.375-6.529,9.514-8.635C309.386,107.914,313.653,106.84,318.051,106.797L318.051,106.797z
			 M362.212,91.075h11.094v17.397h18.318v8.375h-18.318v43.945c-0.129,3.744,0.354,6.371,1.451,7.877s3.58,2.23,7.45,2.174
			c1.295,0.008,2.929-0.201,4.901-0.627c1.973-0.428,3.864-1.121,5.676-2.078c0.925-0.645,1.398-0.387,1.42,0.773v7.859
			c-1.793,1.273-3.884,2.176-6.273,2.707c-2.389,0.531-4.77,0.789-7.144,0.773c-6.587,0.129-11.344-1.191-14.271-3.963
			s-4.361-7.377-4.305-13.82v-45.621h-12.256v-8.375h12.256V91.075L362.212,91.075z M257.807,77.931
			c2.309,0.048,4.206,0.821,5.692,2.319s2.255,3.431,2.306,5.799c-0.051,2.301-0.819,4.175-2.306,5.622s-3.384,2.193-5.692,2.239
			c-2.365-0.046-4.278-0.792-5.74-2.239s-2.215-3.321-2.258-5.622c0.043-2.368,0.796-4.301,2.258-5.799
			S255.441,77.979,257.807,77.931L257.807,77.931z M407.62,74.064h11.094v104.77H407.62V74.064L407.62,74.064z"/>
	</g>
</g>
</svg>
