<?xml version="1.0" encoding="iso-8859-1"?>
<!-- Generator: Adobe Illustrator 19.1.0, SVG Export Plug-In . SVG Version: 6.00 Build 0)  -->
<svg xmlns="http://www.w3.org/2000/svg" xmlns:xlink="http://www.w3.org/1999/xlink" version="1.1" id="Capa_1" x="0px" y="0px" viewBox="0 0 513.32 513.32" style="enable-background:new 0 0 513.32 513.32;" xml:space="preserve" width="512px" height="512px">
<g>
	<g>
		<path d="M299.437,0H256.66c0,0,0,21.388,2.139,21.388h-2.139v269.493c-23.527-21.388-53.471-34.221-85.553-34.221    c-70.581,0-128.33,57.749-128.33,128.33s57.749,128.33,128.33,128.33s128.33-57.749,128.33-128.33V126.191    c38.499,51.332,100.525,85.553,171.107,85.553v-40.638C376.435,171.107,299.437,85.553,299.437,0L299.437,0z M171.107,470.543    c-47.055,0-85.553-38.499-85.553-85.553s38.499-85.553,85.553-85.553s85.553,38.499,85.553,85.553    S218.161,470.543,171.107,470.543L171.107,470.543z" fill="#FFFFFF"/>
	</g>
</g>
<g>
</g>
<g>
</g>
<g>
</g>
<g>
</g>
<g>
</g>
<g>
</g>
<g>
</g>
<g>
</g>
<g>
</g>
<g>
</g>
<g>
</g>
<g>
</g>
<g>
</g>
<g>
</g>
<g>
</g>
</svg>
