<?xml version="1.0" encoding="utf-8"?>
<!-- Generator: Adobe Illustrator 16.0.0, SVG Export Plug-In . SVG Version: 6.00 Build 0)  -->
<!DOCTYPE svg PUBLIC "-//W3C//DTD SVG 1.1//EN" "http://www.w3.org/Graphics/SVG/1.1/DTD/svg11.dtd">
<svg version="1.1" id="Layer_1" xmlns="http://www.w3.org/2000/svg" xmlns:xlink="http://www.w3.org/1999/xlink" x="0px" y="0px"
	 width="520px" height="520px" viewBox="0 0 520 520" enable-background="new 0 0 520 520" xml:space="preserve">
<g>
	
		<path fill="none" stroke="#D9D9D9" stroke-width="18.96" stroke-linecap="round" stroke-linejoin="round" stroke-miterlimit="10" d="
		M260,143.253c-64.478,0-116.747,52.27-116.747,116.747S195.522,376.747,260,376.747S376.747,324.478,376.747,260
		S324.478,143.253,260,143.253L260,143.253z M230.963,27.92h58.073c8.019,0,14.519,6.5,14.519,14.519v25.314l15.096,3.882
		c16.309,5.072,31.71,12.205,45.898,21.092l0.676,0.453l17.816-17.817c5.67-5.67,14.862-5.67,20.532,0l41.063,41.063
		c5.67,5.67,5.67,14.863,0,20.533l-17.821,17.821l5.896,9.9c8.126,14.691,14.432,30.53,18.612,47.211l0.946,4.554h25.292
		c8.019,0,14.519,6.5,14.519,14.519v58.072c0,8.019-6.5,14.519-14.519,14.519H452.27l-0.946,4.554
		c-4.181,16.681-10.486,32.52-18.612,47.211l-5.896,9.9l17.821,17.821c5.67,5.67,5.67,14.862,0,20.532l-41.063,41.063
		c-5.67,5.67-14.862,5.67-20.532,0l-17.816-17.816l-0.676,0.453c-14.188,8.888-29.59,16.019-45.898,21.092l-15.096,3.882v25.314
		c0,8.019-6.5,14.519-14.519,14.519h-58.072c-8.019,0-14.519-6.5-14.519-14.519v-25.314l-15.096-3.882
		c-16.309-5.073-31.709-12.204-45.898-21.092l-0.676-0.453l-17.816,17.816c-5.67,5.67-14.863,5.67-20.533,0l-41.063-41.063
		c-5.67-5.67-5.67-14.862,0-20.532l17.821-17.821l-5.896-9.9c-8.125-14.691-14.432-30.53-18.612-47.211l-0.946-4.554H42.438
		c-8.019,0-14.519-6.5-14.519-14.519v-58.072c0-8.019,6.5-14.519,14.519-14.519H67.73l0.946-4.554
		c4.181-16.681,10.487-32.52,18.612-47.211l5.896-9.9l-17.821-17.821c-5.67-5.67-5.67-14.863,0-20.533l41.063-41.063
		c5.67-5.67,14.863-5.67,20.533,0l17.816,17.817l0.676-0.453c14.189-8.887,29.59-16.02,45.898-21.092l15.096-3.881V42.438
		C216.445,34.42,222.945,27.92,230.963,27.92L230.963,27.92z"/>
	
		<path fill="none" stroke="#D9D9D9" stroke-width="18.96" stroke-linecap="round" stroke-linejoin="round" stroke-miterlimit="10" d="
		M180.32,260.06c0-44.039,35.7-79.74,79.739-79.74c44.04,0,79.74,35.701,79.74,79.74s-35.7,79.74-79.74,79.74
		C216.021,339.8,180.32,304.099,180.32,260.06L180.32,260.06z"/>
</g>
</svg>
