<?xml version="1.0" encoding="iso-8859-1"?>
<!-- Generator: Adobe Illustrator 19.1.0, SVG Export Plug-In . SVG Version: 6.00 Build 0)  -->
<svg version="1.1" id="Capa_1" xmlns="http://www.w3.org/2000/svg" xmlns:xlink="http://www.w3.org/1999/xlink" x="0px" y="0px"
	 viewBox="0 0 485.7 485.7" style="fill:white;" xml:space="preserve">
<g>
	<g>
		<path d="M298.45,370.9l-82.1,82.1l-29.3-29.2c-5.3-5.3-13.8-5.3-19.1,0s-5.3,13.8,0,19.1l38.8,38.8c2.6,2.6,6.1,4,9.5,4
			s6.9-1.3,9.5-4l91.6-91.6c5.3-5.3,5.3-13.8,0-19.1C312.25,365.7,303.65,365.7,298.45,370.9z"/>
		<path d="M456.95,365.3c-7.2-22.4-22.2-37.1-43.2-42.5c-93.2-23.4-110.9-53.4-114.2-62.7c7.1-4.6,13.6-10.2,19.5-16.7
			c40.9-46.1,34-125.1,33.3-132.5c-2.6-54.9-28-81.8-48.9-94.7C279.75,1.6,254.75,0,245.05,0c-1,0-1.8,0-2.3,0c-0.6,0-1.4,0-2.3,0
			c-9.6,0-34.6,1.6-58.3,16.2c-20.9,12.9-46.3,39.8-48.9,94.7c-0.7,7.4-7.6,86.5,33.3,132.5c5.9,6.6,12.4,12.2,19.5,16.8
			c-1.1,2.9-3.8,8.4-10.3,15c-12.8,13-41.3,31.9-104,47.6c-21,5.3-36,20-43.2,42.4c-5.6,17.3-5.6,35.6-5.6,46.5v31.6
			c0,7.5,6,13.5,13.5,13.5s13.5-6,13.5-13.5v-31.5c0-28.9,3.4-56.4,28.4-62.8c55.2-13.9,94.5-32.3,116.6-54.9
			c8.5-8.6,13.1-16.5,15.7-22.9c9.4,2.7,19.5,4.2,30.4,4.4c0.6,0,1.1,0,1.7,0c0.2,0,0.4,0,0.7,0c0.4,0,0.7,0,1.1,0
			c10.9-0.2,21-1.6,30.4-4.4c2.6,6.3,7.2,14.3,15.7,22.9c22.2,22.6,61.4,41,116.6,54.9c25,6.4,28.5,33.9,28.5,62.8v31.6
			c0,7.5,6,13.5,13.5,13.5s13.5-6,13.5-13.5v-31.6C462.55,400.9,462.55,382.7,456.95,365.3z M243.25,248.7c-0.2,0-0.3,0-0.5,0l0,0
			l0,0c-0.2,0-0.3,0-0.5,0c-23.7-0.3-41.9-7.8-55.5-23.1c-34.1-38.3-26.7-111.5-26.6-112.2c0-0.3,0.1-0.6,0.1-0.8
			c3.6-79.4,62.3-85.6,80.2-85.6c0.8,0,1.4,0,1.8,0c0.4,0,0.7,0,1.1,0s1,0,1.8,0c17.9,0,76.6,6.2,80.2,85.6c0,0.3,0,0.6,0.1,0.8
			c0.1,0.7,7.6,73.6-26.6,112.1C285.25,240.9,267.05,248.4,243.25,248.7z"/>
	</g>
</g>

</svg>
