<?xml version="1.0" encoding="utf-8"?>
<!-- Generator: Adobe Illustrator 16.0.0, SVG Export Plug-In . SVG Version: 6.00 Build 0)  -->
<!DOCTYPE svg PUBLIC "-//W3C//DTD SVG 1.1//EN" "http://www.w3.org/Graphics/SVG/1.1/DTD/svg11.dtd">
<svg version="1.1" id="Layer_1" xmlns="http://www.w3.org/2000/svg" xmlns:xlink="http://www.w3.org/1999/xlink" x="0px" y="0px"
	 width="520px" height="520px" viewBox="0 0 520 520" enable-background="new 0 0 520 520" xml:space="preserve">
<g>
	
		<path fill="none" stroke="#D9D9D9" stroke-width="18.96" stroke-linecap="round" stroke-linejoin="round" stroke-miterlimit="10" d="
		M260,338.69c-10.275,0-18.604,8.329-18.604,18.604c0,10.273,8.329,18.603,18.604,18.603c10.275,0,18.603-8.329,18.603-18.603
		C278.604,347.02,270.275,338.69,260,338.69L260,338.69z M260,110.365c-15.305,0-27.712,12.407-27.712,27.71v144.824
		c0,15.304,12.407,27.71,27.712,27.71l0,0c15.304,0,27.712-12.406,27.712-27.71c0-48.275,0-96.55,0-144.824
		C287.713,122.771,275.305,110.365,260,110.365L260,110.365z M260,25.88c122.806,0,222.359,98.562,222.359,220.143
		c0,121.582-99.553,220.144-222.359,220.144c-30.702,0-59.95-6.16-86.553-17.3l-6.68-3.186L80.706,494.12l12.86-102.457
		l-5.149-5.608c-31.721-38.054-50.776-86.84-50.776-140.032C37.64,124.441,137.194,25.88,260,25.88L260,25.88z"/>
</g>
</svg>
