<?xml version="1.0" encoding="utf-8"?>
<!-- Generator: Adobe Illustrator 19.1.0, SVG Export Plug-In . SVG Version: 6.00 Build 0)  -->
<svg version="1.1" id="Layer_1" xmlns="http://www.w3.org/2000/svg" xmlns:xlink="http://www.w3.org/1999/xlink" x="0px" y="0px"
	 viewBox="0 0 64 64" enable-background="new 0 0 64 64" xml:space="preserve">
<path id="Dependency" d="M49,25c6.6273994,0,12-5.3726006,12-12S55.6273994,1,49,1c-6.6275024,0-12,5.3726001-12,12
	c0,1.9055004,0.4559021,3.7003994,1.2462997,5.3006001L21.3762016,29.5473003C19.5918007,26.8118,16.5097008,25,13.0000019,25
	c-5.5229006,0-10,4.4771004-10,10c0,5.5228004,4.4770999,10,10,10c3.5282993,0,6.6231995-1.8317986,8.4032001-4.5918007
	l18.428196,11.0569C39.3041992,52.5321007,39,53.7291985,39,55c0,4.4183006,3.5816994,8,8,8c4.4181976,0,8-3.5816994,8-8
	s-3.5818024-8-8-8c-2.4283028,0-4.5993996,1.0858994-6.0666008,2.7938995L22.3132019,38.6217995
	c0.4375992-1.1241989,0.6868-2.3428001,0.6868-3.6217995c0-1.2947006-0.2542-2.5279999-0.7021008-3.6634998L39.278698,20.0160007
	C41.4584999,23.0307999,44.9953003,25,49,25z M47,49c3.3083992,0,6,2.6916008,6,6s-2.6916008,6-6,6s-6-2.6916008-6-6
	S43.6916008,49,47,49z M13.0000019,43c-4.4112005,0-8-3.5887985-8-8s3.5888-8,8-8
	c3.0221004,0,5.6570988,1.6851997,7.0175991,4.1646004c0.022501,0.1353989,0.0692997,0.2682991,0.150301,0.3901005
	c0.0268993,0.0401993,0.0611,0.0716,0.0924988,0.106699C20.7303009,32.6791,21.0000019,33.8073997,21.0000019,35
	c0,1.2071991-0.2765999,2.3483009-0.7574005,3.3755989c-0.0319004,0.0386009-0.0734997,0.0655022-0.1000996,0.1098022
	c-0.066,0.1100006-0.1032009,0.2283974-0.1235008,0.3476982C18.658802,41.3138008,16.0230007,43,13.0000019,43z M49,3
	c5.5139999,0,10,4.4860001,10,10s-4.4860001,10-10,10c-5.5140991,0-10-4.4860001-10-10S43.4859009,3,49,3z"/>
<g>
</g>
<g>
</g>
<g>
</g>
<g>
</g>
<g>
</g>
<g>
</g>
<g>
</g>
<g>
</g>
<g>
</g>
<g>
</g>
<g>
</g>
<g>
</g>
<g>
</g>
<g>
</g>
<g>
</g>
</svg>
