<?xml version="1.0" encoding="iso-8859-1"?>
<!-- Generator: Adobe Illustrator 19.1.0, SVG Export Plug-In . SVG Version: 6.00 Build 0)  -->
<svg version="1.1" id="Capa_1" xmlns="http://www.w3.org/2000/svg" xmlns:xlink="http://www.w3.org/1999/xlink" x="0px" y="0px"
	 viewBox="0 0 491.717 491.717" style="enable-background:new 0 0 491.717 491.717;" xml:space="preserve">
<g>
	<g>
		<path style="fill:#231F20;" d="M212.454,416.89c-115.447,0-208.445-92.999-208.445-208.445S97.007,0,212.454,0
			s208.445,92.999,208.445,208.445S327.9,416.89,212.454,416.89z M212.454,32.068c-97.274,0-176.377,79.102-176.377,176.377
			s79.102,176.377,176.377,176.377S388.83,305.72,388.83,208.445S309.728,32.068,212.454,32.068z"/>
		<path style="fill:#231F20;" d="M472.209,491.717c-4.276,0-8.552-1.069-11.758-4.276L333.245,360.236
			c-6.414-6.414-6.414-16.034,0-22.448c6.414-6.414,16.034-6.414,22.448,0l127.205,127.205c6.414,6.414,6.414,16.034,0,22.448
			C480.76,490.648,476.484,491.717,472.209,491.717z"/>
	</g>
</g>
<g>
</g>
<g>
</g>
<g>
</g>
<g>
</g>
<g>
</g>
<g>
</g>
<g>
</g>
<g>
</g>
<g>
</g>
<g>
</g>
<g>
</g>
<g>
</g>
<g>
</g>
<g>
</g>
<g>
</g>
</svg>
