<?xml version="1.0" encoding="utf-8"?>
<!-- Generator: Adobe Illustrator 16.0.0, SVG Export Plug-In . SVG Version: 6.00 Build 0)  -->
<!DOCTYPE svg PUBLIC "-//W3C//DTD SVG 1.1//EN" "http://www.w3.org/Graphics/SVG/1.1/DTD/svg11.dtd">
<svg version="1.1" id="Capa_1" xmlns="http://www.w3.org/2000/svg" xmlns:xlink="http://www.w3.org/1999/xlink" x="0px" y="0px"
	 width="500px" height="200px" viewBox="0 0 500 200" enable-background="new 0 0 500 200" xml:space="preserve">
<g>
	<g>
		<path d="M323.313,168.262h-95.092l13.17-13.17c1.963-1.963,1.963-5.112,0-7.076c-1.963-1.963-5.112-1.963-7.076,0l-21.718,21.719
			c-1.963,1.963-1.963,5.112,0,7.076l21.718,21.717c0.981,0.982,2.25,1.473,3.558,1.473c1.309,0,2.577-0.49,3.559-1.473
			c1.963-1.963,1.963-5.112,0-7.075l-13.17-13.17h95.092c11.493,0,20.859-9.366,20.859-20.858V42.577
			c0-11.493-9.366-20.859-20.859-20.859h-13.865c-2.781,0-5.03,2.25-5.03,5.031s2.249,5.031,5.03,5.031h13.865
			c5.972,0,10.839,4.867,10.839,10.838v114.847C334.151,163.395,329.284,168.262,323.313,168.262z"/>
		<path d="M265.645,1.472c-1.963-1.963-5.113-1.963-7.076,0c-1.963,1.963-1.963,5.113,0,7.076l13.17,13.17h-95.092
			c-11.493,0-20.859,9.366-20.859,20.859v114.847c0,11.492,9.366,20.858,20.859,20.858h13.865c2.781,0,5.031-2.249,5.031-5.03
			s-2.25-5.031-5.031-5.031h-13.865c-5.971,0-10.838-4.867-10.838-10.838V42.577c0-5.971,4.867-10.838,10.838-10.838h95.092
			l-13.17,13.17c-1.963,1.963-1.963,5.112,0,7.076c0.982,0.981,2.25,1.472,3.559,1.472s2.576-0.491,3.559-1.472l21.717-21.718
			c0.941-0.941,1.473-2.209,1.473-3.559s-0.531-2.618-1.473-3.558L265.645,1.472z"/>
	</g>
</g>
<g>
	<path fill-rule="evenodd" clip-rule="evenodd" d="M252.268,68.693h7.42v62.613h-7.09V76.458h-0.082
		c-3.711,2.96-7.503,5.135-11.379,6.525c-0.563,0.234-0.838,0.097-0.824-0.413v-5.121c2.271-0.989,4.408-2.211,6.41-3.666
		C248.726,72.329,250.574,70.633,252.268,68.693L252.268,68.693z"/>
</g>
</svg>
