<?xml version="1.0" encoding="utf-8"?>
<!-- Generator: Adobe Illustrator 16.0.0, SVG Export Plug-In . SVG Version: 6.00 Build 0)  -->
<!DOCTYPE svg PUBLIC "-//W3C//DTD SVG 1.1//EN" "http://www.w3.org/Graphics/SVG/1.1/DTD/svg11.dtd">
<svg version="1.1" id="Capa_1" xmlns="http://www.w3.org/2000/svg" xmlns:xlink="http://www.w3.org/1999/xlink" x="0px" y="0px"
	 width="200px" height="200px" viewBox="269.333 0 200 200" enable-background="new 269.333 0 200 200" xml:space="preserve">
<g>
	<g>
		<path d="M442.313,168.262h-95.092l13.17-13.17c1.963-1.963,1.963-5.111,0-7.076c-1.963-1.963-5.111-1.963-7.076,0l-21.717,21.719
			c-1.963,1.964-1.963,5.113,0,7.076l21.717,21.717c0.982,0.982,2.25,1.474,3.559,1.474s2.578-0.49,3.559-1.474
			c1.963-1.963,1.963-5.111,0-7.074l-13.17-13.17h95.092c11.492,0,20.859-9.366,20.859-20.858V42.577
			c0-11.493-9.367-20.859-20.859-20.859h-13.865c-2.781,0-5.029,2.25-5.029,5.031s2.248,5.031,5.029,5.031h13.865
			c5.971,0,10.838,4.867,10.838,10.838v114.847C453.151,163.395,448.283,168.262,442.313,168.262z"/>
		<path d="M384.645,1.472c-1.963-1.963-5.113-1.963-7.076,0c-1.963,1.963-1.963,5.113,0,7.076l13.17,13.17h-95.092
			c-11.492,0-20.859,9.366-20.859,20.859v114.847c0,11.492,9.367,20.858,20.859,20.858h13.865c2.781,0,5.031-2.249,5.031-5.03
			s-2.25-5.031-5.031-5.031h-13.865c-5.971,0-10.838-4.867-10.838-10.838V42.577c0-5.971,4.867-10.838,10.838-10.838h95.092
			l-13.17,13.17c-1.963,1.963-1.963,5.112,0,7.076c0.982,0.981,2.25,1.472,3.559,1.472s2.576-0.491,3.559-1.472l21.717-21.718
			c0.941-0.941,1.475-2.209,1.475-3.559s-0.531-2.618-1.475-3.558L384.645,1.472z"/>
	</g>
</g>
<g>
	<path d="M370.614,74.538l-10.158,32.883h20.973l-10.732-32.883H370.614L370.614,74.538z M366.354,68.962h9.096l21.221,62.076
		h-7.457l-5.57-17.713h-25.316l-5.652,17.713h-7.457L366.354,68.962L366.354,68.962z"/>
</g>
</svg>
