<?xml version="1.0" encoding="utf-8"?>
<!-- Generator: Adobe Illustrator 16.0.0, SVG Export Plug-In . SVG Version: 6.00 Build 0)  -->
<!DOCTYPE svg PUBLIC "-//W3C//DTD SVG 1.1//EN" "http://www.w3.org/Graphics/SVG/1.1/DTD/svg11.dtd">
<svg version="1.1" id="Layer_1" xmlns="http://www.w3.org/2000/svg" xmlns:xlink="http://www.w3.org/1999/xlink" x="0px" y="0px"
	 width="500px" height="200px" viewBox="0 0 500 200" enable-background="new 0 0 500 200" xml:space="preserve">
<path id="XMLID_7_" d="M324.61,139.027c-3.55-3.551-9.306-3.551-12.856,0c-3.551,3.55-3.551,9.306,0,12.855l7.208,7.209H159.091
	c-5.021,0-9.091,4.07-9.091,9.09c0,5.021,4.07,9.092,9.091,9.092h159.871l-7.208,7.207c-3.551,3.551-3.551,9.307,0,12.857
	c1.774,1.773,4.102,2.662,6.428,2.662s4.652-0.887,6.428-2.662l22.728-22.729c3.55-3.551,3.55-9.306,0-12.855L324.61,139.027z"/>
<g>
	<path fill-rule="evenodd" clip-rule="evenodd" d="M249.36,25.888l-19.867,64.297h41.012l-20.986-64.297H249.36L249.36,25.888z
		 M241.028,14.985h17.783l41.493,121.379h-14.578l-10.896-34.634h-49.503l-11.054,34.634h-14.579L241.028,14.985L241.028,14.985z"/>
</g>
</svg>
