<?xml version="1.0" encoding="utf-8"?>
<!-- Generator: Adobe Illustrator 16.0.0, SVG Export Plug-In . SVG Version: 6.00 Build 0)  -->
<!DOCTYPE svg PUBLIC "-//W3C//DTD SVG 1.1//EN" "http://www.w3.org/Graphics/SVG/1.1/DTD/svg11.dtd">
<svg version="1.1" id="Layer_1" xmlns="http://www.w3.org/2000/svg" xmlns:xlink="http://www.w3.org/1999/xlink" x="0px" y="0px"
	 width="500px" height="200px" viewBox="0 0 500 200" enable-background="new 0 0 500 200" xml:space="preserve">
<path id="XMLID_7_" d="M324.61,139.027c-3.55-3.551-9.306-3.551-12.856,0c-3.551,3.55-3.551,9.306,0,12.855l7.208,7.209H159.091
	c-5.021,0-9.091,4.07-9.091,9.09c0,5.021,4.07,9.092,9.091,9.092h159.871l-7.208,7.207c-3.551,3.551-3.551,9.307,0,12.857
	c1.774,1.773,4.102,2.662,6.428,2.662s4.652-0.887,6.428-2.662l22.728-22.729c3.55-3.551,3.55-9.306,0-12.855L324.61,139.027z"/>
<g>
	<path fill-rule="evenodd" clip-rule="evenodd" d="M242.882,14.985h13.743v121.379h-13.131V30.038h-0.153
		c-6.872,5.738-13.897,9.954-21.072,12.648c-1.045,0.455-1.554,0.188-1.529-0.8v-9.927c4.208-1.918,8.167-4.286,11.875-7.107
		C236.323,22.033,239.747,18.744,242.882,14.985L242.882,14.985z"/>
</g>
</svg>
